Coordinates
version=1
nRows=17
nColumns=36
inDegrees=yes

Units are S.I. units (second, meters, Newtons, ...)
If the header above contains a line with 'inDegrees', this indicates whether rotational values are in degrees (yes) or radians (no).

endheader
time	pelvis_tilt	pelvis_list	pelvis_rotation	pelvis_tx	pelvis_ty	pelvis_tz	hip_flexion_r	hip_adduction_r	hip_rotation_r	knee_angle_r	knee_angle_r_beta	ankle_angle_r	subtalar_angle_r	mtp_angle_r	hip_flexion_l	hip_adduction_l	hip_rotation_l	knee_angle_l	knee_angle_l_beta	ankle_angle_l	subtalar_angle_l	mtp_angle_l	lumbar_extension	lumbar_bending	lumbar_rotation	arm_flex_r	arm_add_r	arm_rot_r	elbow_flex_r	pro_sup_r	arm_flex_l	arm_add_l	arm_rot_l	elbow_flex_l	pro_sup_l
      0.33000000	      2.62672279	     -1.57551560	     -2.06107633	      0.27447628	      0.96506853	     -0.23021756	     -3.06635114	      4.41721487	     -9.12150330	      8.05036009	      0.14050529	      6.56985495	    -14.09277327	     -6.44078872	     21.35048813	     -6.04230003	    -10.31567445	     36.44525000	      0.63608961	     -1.76529878	    -19.96231486	     -6.44078872	     -7.86134019	      3.80324508	      5.43443858	      3.57893341	    -12.62227845	    -16.83484583	     42.98693188	    112.81512560	    -10.63768943	     -3.88733003	    -20.24784889	     16.81584240	    106.23897126
      0.34000000	      2.60252481	     -1.58486076	     -2.31243341	      0.28590701	      0.96455973	     -0.22938479	     -4.00515933	      4.44781621	     -9.09587290	      7.71419209	      0.13463805	      7.25460592	    -13.36908751	     -6.54449531	     21.68315922	     -5.97407142	    -10.91185031	     33.29077352	      0.58103361	     -2.66984729	    -20.12851293	     -6.54449531	     -7.88162154	      3.75645060	      5.42994138	      4.89733245	    -13.06923619	    -15.50181467	     43.02569718	    112.56097713	    -11.49079160	     -3.81801808	    -21.48661615	     17.19573193	    105.86603649
      0.35000000	      2.57988486	     -1.62722172	     -2.59654534	      0.29740326	      0.96382658	     -0.22846646	     -4.99071200	      4.54008311	     -8.79312145	      7.28695674	      0.12718139	      7.58943911	    -13.30278965	     -6.56302759	     21.96895559	     -5.98527507	    -11.55607214	     30.19704267	      0.52703782	     -3.04103250	    -19.35442764	     -6.56302759	     -7.89296622	      3.76335400	      5.78679437	      5.80758325	    -13.35016252	    -15.18303241	     43.58744609	    112.58260605	    -12.03701884	     -3.89566369	    -21.67679019	     17.09968777	    105.82819432
      0.36000000	      2.51154509	     -1.70252472	     -2.85932080	      0.30892024	      0.96277237	     -0.22768108	     -5.89598985	      4.65980685	     -8.45561664	      6.93539733	      0.12104552	      7.95913315	    -13.24450149	     -6.57602731	     22.28439502	     -5.99294775	    -12.02390596	     27.16350144	      0.47409254	     -3.37850490	    -18.45499035	     -6.57602731	     -7.84269720	      3.80922221	      6.08775687	      6.72037957	    -13.62448060	    -14.80356852	     44.10618705	    112.61770285	    -12.58494291	     -3.96573261	    -21.83132716	     17.03023967	    105.79023360
      0.37000000	      2.61012955	     -1.78736005	     -3.14721090	      0.32051268	      0.96174803	     -0.22690559	     -7.00342644	      4.76677041	     -8.11442728	      6.55785002	      0.11445607	      8.40757820	    -13.19716194	     -6.59283103	     22.35104634	     -6.01342088	    -12.50342765	     24.16528565	      0.42176380	     -3.58434982	    -17.35550927	     -6.59283103	     -7.99711750	      3.83994880	      6.37237627	      7.67456779	    -13.92940432	    -14.18618795	     44.54227864	    112.65684993	    -13.09983465	     -4.01199462	    -22.03191987	     17.05499436	    105.74006939
      0.38000000	      2.55142959	     -1.94008653	     -3.41203389	      0.33203742	      0.96024800	     -0.22629710	     -7.86781490	      4.93805043	     -7.69865708	      6.33539874	      0.11057357	      8.79951568	    -13.18488945	     -6.60364137	     22.61033514	     -6.06344663	    -12.61384368	     21.34684378	      0.37257271	     -3.63982895	    -16.28671094	     -6.60364137	     -7.96849502	      3.96780769	      6.61695489	      8.57875865	    -14.18608652	    -13.71309823	     45.01563001	    112.69649086	    -13.59799413	     -4.04002642	    -22.17887336	     17.04011590	    105.69891890
      0.39000000	      2.73952920	     -2.07848356	     -3.71394374	      0.34372404	      0.95891074	     -0.22567956	     -9.05641180	      5.05989615	     -7.30594107	      6.00165120	      0.10474857	      9.21332298	    -13.15497906	     -6.64378316	     22.52544881	     -6.15973789	    -12.96622219	     18.64435905	      0.32540545	     -3.14413424	    -14.64150505	     -6.64378316	     -8.22542568	      4.03245900	      6.68485724	      9.72795504	    -14.54927277	    -12.36570038	     45.17030997	    112.68641471	    -14.19828263	     -3.96432235	    -22.70166742	     17.33281154	    105.57801242
      0.40000000	      2.65067048	     -2.27059821	     -4.00772234	      0.35527034	      0.95700267	     -0.22520585	     -9.79484670	      5.22710350	     -6.84646141	      5.97911670	      0.10435527	      9.63934207	    -13.29333206	     -6.65203670	     22.74503819	     -6.25009723	    -12.72534079	     16.08459448	      0.28072913	     -2.99446822	    -13.85055254	     -6.65203670	     -8.17927982	      4.19319017	      6.96939631	     10.53668477	    -14.72306228	    -12.06539782	     45.66771309	    112.71326440	    -14.57908722	     -3.97301841	    -22.81636950	     17.30245560	    105.54912748
      0.41000000	      2.82125507	     -2.36648389	     -4.30862962	      0.36702398	      0.95534307	     -0.22479712	    -10.88919071	      5.26012100	     -6.43974907	      5.80244318	      0.10127174	     10.08359956	    -13.50053392	     -6.66638729	     22.57258346	     -6.25732570	    -12.65894239	     13.60013476	      0.23736713	     -2.65940712	    -13.00747681	     -6.66638729	     -8.42366425	      4.20339388	      7.25559812	     11.34046651	    -14.95668114	    -11.41149321	     46.13667919	    112.74722521	    -14.89252592	     -3.98775903	    -22.96432080	     17.38186895	    105.50677714
      0.42000000	      2.85294962	     -2.50698258	     -4.62470668	      0.37875309	      0.95339512	     -0.22447600	    -11.76059513	      5.31606876	     -5.98984849	      5.77818719	      0.10084839	     10.44026296	    -13.69780243	     -6.68078591	     22.54129714	     -6.33612748	    -12.42008797	     11.32918888	      0.19773165	     -2.21523436	    -12.41758758	     -6.68078591	     -8.53452819	      4.28819898	      7.49990579	     12.12487315	    -15.13842380	    -10.79864559	     46.56207634	    112.76528415	    -15.20125024	     -3.97866612	    -23.09868246	     17.44824761	    105.46051782
      0.43000000	      2.87441440	     -2.61471144	     -4.95084911	      0.39056969	      0.95138151	     -0.22424317	    -12.59333627	      5.31527843	     -5.54232642	      5.80818561	      0.10137196	     10.78962988	    -13.92384676	     -6.69561703	     22.47307910	     -6.39400780	    -12.10176146	      9.25540827	      0.16153735	     -1.77724506	    -12.07951251	     -6.69561703	     -8.62790910	      4.30920442	      7.74396728	     12.84699576	    -15.29414064	    -10.21154473	     46.97060056	    112.77087614	    -15.44881791	     -3.97527301	    -23.22767015	     17.51057691	    105.40798388
      0.44000000	      2.75119073	     -2.73415854	     -5.30131513	      0.40238899	      0.94914702	     -0.22403630	    -13.19203013	      5.30542137	     -5.08514976	      6.00942252	      0.10488421	     11.04836406	    -14.05046038	     -6.70301213	     22.57686578	     -6.51845839	    -11.79372337	      7.48629425	      0.13066048	     -1.31294789	    -11.95032804	     -6.70301213	     -8.55978342	      4.36049003	      7.99249005	     13.48036193	    -15.30862310	     -9.88932807	     47.39647945	    112.78553725	    -15.63934291	     -3.96945289	    -23.29553258	     17.49793654	    105.37517961
      0.45000000	      2.70020335	     -2.78941479	     -5.64599342	      0.41440366	      0.94702644	     -0.22391657	    -13.89811965	      5.20239857	     -4.70776937	      6.14654439	      0.10727744	     11.37249531	    -14.23031466	     -6.71097238	     22.54847083	     -6.57897437	    -11.51441572	      5.91393241	      0.10321759	     -0.88780242	    -11.97875652	     -6.71097238	     -8.56426014	      4.32099484	      8.25275884	     14.00285886	    -15.33582469	     -9.51294343	     47.82609465	    112.80055607	    -15.75869132	     -3.98949506	    -23.37574371	     17.49221273	    105.33457186
      0.46000000	      2.69958320	     -2.80236215	     -5.97747788	      0.42653620	      0.94500231	     -0.22388946	    -14.67784195	      5.03229948	     -4.40682408	      6.23458402	      0.10881402	     11.60333849	    -14.37467546	     -6.74976187	     22.43622583	     -6.58528661	    -11.13460793	      4.57564298	      0.07986004	     -0.87104569	    -12.63476130	     -6.74976187	     -8.61390225	      4.21366912	      8.41525856	     14.50362668	    -15.39322524	     -8.77426980	     48.21486684	    112.68775428	    -15.86873148	     -3.97069087	    -23.73553799	     17.61716271	    105.17088710
      0.47000000	      2.57649885	     -2.80049687	     -6.34007466	      0.43879700	      0.94287211	     -0.22385003	    -15.25805523	      4.83032418	     -4.12014373	      6.47491714	      0.11300862	     11.84838584	    -14.46571865	     -6.75911169	     22.52337476	     -6.64713958	    -10.98599351	      3.71360765	      0.06481468	     -0.41838837	    -12.77266560	     -6.75911169	     -8.50606586	      4.09641757	      8.64573559	     14.85368628	    -15.27461204	     -8.58629442	     48.61505194	    112.69149383	    -15.89073215	     -4.01093186	    -23.84177427	     17.58969467	    105.13277817
      0.48000000	      2.42051570	     -2.78031219	     -6.71332686	      0.45123709	      0.94076842	     -0.22385951	    -15.79257388	      4.58854841	     -3.91432010	      6.72508543	      0.11737488	     11.92151813	    -14.47392355	     -6.76319752	     22.66207194	     -6.71429412	    -10.97332952	      3.20317936	      0.05590603	     -0.04660907	    -12.93686362	     -6.76319752	     -8.33188943	      3.96125557	      8.80912869	     15.13110921	    -15.07577203	     -8.43593236	     48.98514153	    112.71007963	    -15.91092480	     -4.04705733	    -23.90715715	     17.54956259	    105.11138080
      0.49000000	      2.39280206	     -2.67076490	     -7.11712955	      0.46377573	      0.93892945	     -0.22390058	    -16.44820333	      4.20397354	     -3.69619011	      6.99961199	      0.12216628	     12.15216545	    -14.52476853	     -6.77335158	     22.60535911	     -6.67805158	    -10.86164159	      2.92499279	      0.05105075	      0.36581918	    -13.17651964	     -6.77335158	     -8.31800719	      3.69015952	      9.09683891	     15.21082656	    -14.94963666	     -8.17180395	     49.53007528	    112.72767547	    -15.77776528	     -4.13364653	    -24.08589907	     17.55794050	    105.06552883
